<?xml version="1.0" standalone="no"?>
<svg xmlns:xlink="http://www.w3.org/1999/xlink" id="wave" style="transform:rotate(180deg); transition: 0.3s" viewBox="0 0 1440 490" version="1.1" xmlns="http://www.w3.org/2000/svg"><defs><linearGradient id="sw-gradient-0" x1="0" x2="0" y1="1" y2="0"><stop stop-color="rgba(243, 106, 62, 1)" offset="0%"/><stop stop-color="rgba(255, 179, 11, 1)" offset="100%"/></linearGradient></defs><path style="transform:translate(0, 0px); opacity:1" fill="url(#sw-gradient-0)" d="M0,49L34.3,89.8C68.6,131,137,212,206,236.8C274.3,261,343,229,411,253.2C480,278,549,359,617,400.2C685.7,441,754,441,823,408.3C891.4,376,960,310,1029,236.8C1097.1,163,1166,82,1234,98C1302.9,114,1371,229,1440,261.3C1508.6,294,1577,245,1646,220.5C1714.3,196,1783,196,1851,196C1920,196,1989,196,2057,236.8C2125.7,278,2194,359,2263,343C2331.4,327,2400,212,2469,171.5C2537.1,131,2606,163,2674,196C2742.9,229,2811,261,2880,277.7C2948.6,294,3017,294,3086,302.2C3154.3,310,3223,327,3291,326.7C3360,327,3429,310,3497,326.7C3565.7,343,3634,392,3703,343C3771.4,294,3840,147,3909,73.5C3977.1,0,4046,0,4114,57.2C4182.9,114,4251,229,4320,236.8C4388.6,245,4457,147,4526,106.2C4594.3,65,4663,82,4731,106.2C4800,131,4869,163,4903,179.7L4937.1,196L4937.1,490L4902.9,490C4868.6,490,4800,490,4731,490C4662.9,490,4594,490,4526,490C4457.1,490,4389,490,4320,490C4251.4,490,4183,490,4114,490C4045.7,490,3977,490,3909,490C3840,490,3771,490,3703,490C3634.3,490,3566,490,3497,490C3428.6,490,3360,490,3291,490C3222.9,490,3154,490,3086,490C3017.1,490,2949,490,2880,490C2811.4,490,2743,490,2674,490C2605.7,490,2537,490,2469,490C2400,490,2331,490,2263,490C2194.3,490,2126,490,2057,490C1988.6,490,1920,490,1851,490C1782.9,490,1714,490,1646,490C1577.1,490,1509,490,1440,490C1371.4,490,1303,490,1234,490C1165.7,490,1097,490,1029,490C960,490,891,490,823,490C754.3,490,686,490,617,490C548.6,490,480,490,411,490C342.9,490,274,490,206,490C137.1,490,69,490,34,490L0,490Z"/><defs><linearGradient id="sw-gradient-1" x1="0" x2="0" y1="1" y2="0"><stop stop-color="rgba(243, 106, 62, 1)" offset="0%"/><stop stop-color="rgba(255, 179, 11, 1)" offset="100%"/></linearGradient></defs><path style="transform:translate(0, 50px); opacity:0.9" fill="url(#sw-gradient-1)" d="M0,147L34.3,196C68.6,245,137,343,206,343C274.3,343,343,245,411,236.8C480,229,549,310,617,302.2C685.7,294,754,196,823,155.2C891.4,114,960,131,1029,155.2C1097.1,180,1166,212,1234,220.5C1302.9,229,1371,212,1440,179.7C1508.6,147,1577,98,1646,73.5C1714.3,49,1783,49,1851,81.7C1920,114,1989,180,2057,187.8C2125.7,196,2194,147,2263,138.8C2331.4,131,2400,163,2469,212.3C2537.1,261,2606,327,2674,326.7C2742.9,327,2811,261,2880,228.7C2948.6,196,3017,196,3086,171.5C3154.3,147,3223,98,3291,89.8C3360,82,3429,114,3497,106.2C3565.7,98,3634,49,3703,81.7C3771.4,114,3840,229,3909,236.8C3977.1,245,4046,147,4114,89.8C4182.9,33,4251,16,4320,81.7C4388.6,147,4457,294,4526,302.2C4594.3,310,4663,180,4731,130.7C4800,82,4869,114,4903,130.7L4937.1,147L4937.1,490L4902.9,490C4868.6,490,4800,490,4731,490C4662.9,490,4594,490,4526,490C4457.1,490,4389,490,4320,490C4251.4,490,4183,490,4114,490C4045.7,490,3977,490,3909,490C3840,490,3771,490,3703,490C3634.3,490,3566,490,3497,490C3428.6,490,3360,490,3291,490C3222.9,490,3154,490,3086,490C3017.1,490,2949,490,2880,490C2811.4,490,2743,490,2674,490C2605.7,490,2537,490,2469,490C2400,490,2331,490,2263,490C2194.3,490,2126,490,2057,490C1988.6,490,1920,490,1851,490C1782.9,490,1714,490,1646,490C1577.1,490,1509,490,1440,490C1371.4,490,1303,490,1234,490C1165.7,490,1097,490,1029,490C960,490,891,490,823,490C754.3,490,686,490,617,490C548.6,490,480,490,411,490C342.9,490,274,490,206,490C137.1,490,69,490,34,490L0,490Z"/><defs><linearGradient id="sw-gradient-2" x1="0" x2="0" y1="1" y2="0"><stop stop-color="rgba(243, 106, 62, 1)" offset="0%"/><stop stop-color="rgba(255, 179, 11, 1)" offset="100%"/></linearGradient></defs><path style="transform:translate(0, 100px); opacity:0.8" fill="url(#sw-gradient-2)" d="M0,49L34.3,89.8C68.6,131,137,212,206,236.8C274.3,261,343,229,411,204.2C480,180,549,163,617,196C685.7,229,754,310,823,285.8C891.4,261,960,131,1029,65.3C1097.1,0,1166,0,1234,24.5C1302.9,49,1371,98,1440,163.3C1508.6,229,1577,310,1646,343C1714.3,376,1783,359,1851,326.7C1920,294,1989,245,2057,236.8C2125.7,229,2194,261,2263,245C2331.4,229,2400,163,2469,163.3C2537.1,163,2606,229,2674,220.5C2742.9,212,2811,131,2880,81.7C2948.6,33,3017,16,3086,8.2C3154.3,0,3223,0,3291,57.2C3360,114,3429,229,3497,294C3565.7,359,3634,376,3703,334.8C3771.4,294,3840,196,3909,187.8C3977.1,180,4046,261,4114,261.3C4182.9,261,4251,180,4320,179.7C4388.6,180,4457,261,4526,253.2C4594.3,245,4663,147,4731,122.5C4800,98,4869,147,4903,171.5L4937.1,196L4937.1,490L4902.9,490C4868.6,490,4800,490,4731,490C4662.9,490,4594,490,4526,490C4457.1,490,4389,490,4320,490C4251.4,490,4183,490,4114,490C4045.7,490,3977,490,3909,490C3840,490,3771,490,3703,490C3634.3,490,3566,490,3497,490C3428.6,490,3360,490,3291,490C3222.9,490,3154,490,3086,490C3017.1,490,2949,490,2880,490C2811.4,490,2743,490,2674,490C2605.7,490,2537,490,2469,490C2400,490,2331,490,2263,490C2194.3,490,2126,490,2057,490C1988.6,490,1920,490,1851,490C1782.9,490,1714,490,1646,490C1577.1,490,1509,490,1440,490C1371.4,490,1303,490,1234,490C1165.7,490,1097,490,1029,490C960,490,891,490,823,490C754.3,490,686,490,617,490C548.6,490,480,490,411,490C342.9,490,274,490,206,490C137.1,490,69,490,34,490L0,490Z"/></svg>